<svg width="32" height="32" viewBox="0 0 32 32" fill="none" xmlns="http://www.w3.org/2000/svg">
<g clip-path="url(#clip0_2743_27)">
<path d="M30.3307 8.08799L16.3307 0.0879849C16.23 0.0303314 16.116 0 16 0C15.884 0 15.77 0.0303314 15.6694 0.0879849L1.66937 8.08799C1.56733 8.14626 1.4825 8.23048 1.4235 8.33211C1.36449 8.43374 1.3334 8.54916 1.33337 8.66667V23.3334C1.33337 23.572 1.46137 23.7934 1.66937 23.912L15.6694 31.912C15.7721 31.9707 15.8854 32 16.0001 32C16.1147 32 16.2281 31.9707 16.3307 31.912L30.3307 23.912C30.4328 23.8538 30.5176 23.7695 30.5766 23.6679C30.6356 23.5663 30.6667 23.4509 30.6667 23.3334V8.66667C30.6667 8.54916 30.6356 8.43374 30.5766 8.33211C30.5176 8.23049 30.4327 8.14627 30.3307 8.08799Z" fill="#001021"/>
</g>
<defs>
<clipPath id="clip0_2743_27">
<rect width="32" height="32" fill="white"/>
</clipPath>
</defs>
</svg>
