<svg width="120" height="64" viewBox="0 0 120 64" fill="none" xmlns="http://www.w3.org/2000/svg">
<g clip-path="url(#clip0_2728_2254)">
<path d="M30.3307 24.088L16.3307 16.088C16.23 16.0303 16.116 16 16 16C15.884 16 15.77 16.0303 15.6694 16.088L1.66937 24.088C1.56733 24.1463 1.4825 24.2305 1.4235 24.3321C1.36449 24.4337 1.3334 24.5492 1.33337 24.6667V39.3334C1.33337 39.572 1.46137 39.7934 1.66937 39.912L15.6694 47.912C15.7721 47.9707 15.8854 48 16.0001 48C16.1147 48 16.2281 47.9707 16.3307 47.912L30.3307 39.912C30.4328 39.8538 30.5176 39.7695 30.5766 39.6679C30.6356 39.5663 30.6667 39.4509 30.6667 39.3334V24.6667C30.6667 24.5492 30.6356 24.4337 30.5766 24.3321C30.5176 24.2305 30.4327 24.1463 30.3307 24.088Z" fill="#001021"/>
</g>
<path d="M56.96 44H42.56V21.6H48.96V38.24H56.96V44ZM76.2498 44H59.3538V34.72L62.8418 31.232H69.9138V26.88H65.6898V29.312H59.4818V25.088L62.9698 21.6H72.6338L76.1218 25.088V32.864L72.6338 36.352H65.5618V38.72H76.2498V44ZM96.656 44H79.76V34.72L83.248 31.232H90.32V26.88H86.096V29.312H79.888V25.088L83.376 21.6H93.04L96.528 25.088V32.864L93.04 36.352H85.968V38.72H96.656V44ZM115.366 44H100.966V21.6H107.366V38.24H115.366V44Z" fill="#001021"/>
<defs>
<clipPath id="clip0_2728_2254">
<rect width="32" height="32" fill="white" transform="translate(0 16)"/>
</clipPath>
</defs>
</svg>
